<?xml version="1.0" encoding="UTF-8"?>
<!--Generator: Apple Native CoreSVG 123-->
<!DOCTYPE svg
PUBLIC "-//W3C//DTD SVG 1.1//EN"
       "http://www.w3.org/Graphics/SVG/1.1/DTD/svg11.dtd">
<svg version="1.1" xmlns="http://www.w3.org/2000/svg" xmlns:xlink="http://www.w3.org/1999/xlink" width="3300" height="2200">
 <!--glyph: "uni100253.medium", point size: 100.000000, font version: "Version 15.0d7e11", template writer version: "5"-->
 <g id="Notes">
  <rect height="2200" id="artboard" style="fill:white;opacity:1" width="3300" x="0" y="0"/>
  <line id="" style="fill:none;stroke:black;opacity:1;stroke-width:0.5;" x1="263" x2="3036" y1="292" y2="292"/>
  <text style="stroke:none;fill:black;font-family:-apple-system,&quot;SF Pro Display&quot;,&quot;SF Pro Text&quot;,Helvetica,sans-serif;font-weight:bold;" transform="matrix(1 0 0 1 263 322)">Weight/Scale Variations</text>
  <text style="stroke:none;fill:black;font-family:-apple-system,&quot;SF Pro Display&quot;,&quot;SF Pro Text&quot;,Helvetica,sans-serif;text-anchor:middle;" transform="matrix(1 0 0 1 559.711 322)">Ultralight</text>
  <text style="stroke:none;fill:black;font-family:-apple-system,&quot;SF Pro Display&quot;,&quot;SF Pro Text&quot;,Helvetica,sans-serif;text-anchor:middle;" transform="matrix(1 0 0 1 856.422 322)">Thin</text>
  <text style="stroke:none;fill:black;font-family:-apple-system,&quot;SF Pro Display&quot;,&quot;SF Pro Text&quot;,Helvetica,sans-serif;text-anchor:middle;" transform="matrix(1 0 0 1 1153.13 322)">Light</text>
  <text style="stroke:none;fill:black;font-family:-apple-system,&quot;SF Pro Display&quot;,&quot;SF Pro Text&quot;,Helvetica,sans-serif;text-anchor:middle;" transform="matrix(1 0 0 1 1449.84 322)">Regular</text>
  <text style="stroke:none;fill:black;font-family:-apple-system,&quot;SF Pro Display&quot;,&quot;SF Pro Text&quot;,Helvetica,sans-serif;text-anchor:middle;" transform="matrix(1 0 0 1 1746.56 322)">Medium</text>
  <text style="stroke:none;fill:black;font-family:-apple-system,&quot;SF Pro Display&quot;,&quot;SF Pro Text&quot;,Helvetica,sans-serif;text-anchor:middle;" transform="matrix(1 0 0 1 2043.27 322)">Semibold</text>
  <text style="stroke:none;fill:black;font-family:-apple-system,&quot;SF Pro Display&quot;,&quot;SF Pro Text&quot;,Helvetica,sans-serif;text-anchor:middle;" transform="matrix(1 0 0 1 2339.98 322)">Bold</text>
  <text style="stroke:none;fill:black;font-family:-apple-system,&quot;SF Pro Display&quot;,&quot;SF Pro Text&quot;,Helvetica,sans-serif;text-anchor:middle;" transform="matrix(1 0 0 1 2636.69 322)">Heavy</text>
  <text style="stroke:none;fill:black;font-family:-apple-system,&quot;SF Pro Display&quot;,&quot;SF Pro Text&quot;,Helvetica,sans-serif;text-anchor:middle;" transform="matrix(1 0 0 1 2933.4 322)">Black</text>
  <line id="" style="fill:none;stroke:black;opacity:1;stroke-width:0.5;" x1="263" x2="3036" y1="1903" y2="1903"/>
  <g id="" transform="matrix(1 0 0 1 263 1933)">
   <path d="M 9.24805 0.830078 C 13.5547 0.830078 17.1387 -2.74414 17.1387 -7.05078 C 17.1387 -11.3574 13.5449 -14.9316 9.23828 -14.9316 C 4.94141 -14.9316 1.36719 -11.3574 1.36719 -7.05078 C 1.36719 -2.74414 4.95117 0.830078 9.24805 0.830078 Z M 9.24805 -0.654297 C 5.70312 -0.654297 2.87109 -3.49609 2.87109 -7.05078 C 2.87109 -10.6055 5.69336 -13.4473 9.23828 -13.4473 C 12.793 -13.4473 15.6348 -10.6055 15.6445 -7.05078 C 15.6543 -3.49609 12.8027 -0.654297 9.24805 -0.654297 Z M 9.22852 -3.42773 C 9.69727 -3.42773 9.9707 -3.74023 9.9707 -4.25781 L 9.9707 -6.31836 L 12.1973 -6.31836 C 12.6953 -6.31836 13.0371 -6.57227 13.0371 -7.04102 C 13.0371 -7.51953 12.7148 -7.7832 12.1973 -7.7832 L 9.9707 -7.7832 L 9.9707 -10.0098 C 9.9707 -10.5273 9.69727 -10.8496 9.22852 -10.8496 C 8.75977 -10.8496 8.50586 -10.5078 8.50586 -10.0098 L 8.50586 -7.7832 L 6.29883 -7.7832 C 5.78125 -7.7832 5.44922 -7.51953 5.44922 -7.04102 C 5.44922 -6.57227 5.80078 -6.31836 6.29883 -6.31836 L 8.50586 -6.31836 L 8.50586 -4.25781 C 8.50586 -3.75977 8.75977 -3.42773 9.22852 -3.42773 Z"/>
  </g>
  <g id="" transform="matrix(1 0 0 1 281.506 1933)">
   <path d="M 11.709 2.91016 C 17.1582 2.91016 21.6699 -1.60156 21.6699 -7.05078 C 21.6699 -12.4902 17.1484 -17.0117 11.6992 -17.0117 C 6.25977 -17.0117 1.74805 -12.4902 1.74805 -7.05078 C 1.74805 -1.60156 6.26953 2.91016 11.709 2.91016 Z M 11.709 1.25 C 7.09961 1.25 3.41797 -2.44141 3.41797 -7.05078 C 3.41797 -11.6504 7.08984 -15.3516 11.6992 -15.3516 C 16.3086 -15.3516 20 -11.6504 20.0098 -7.05078 C 20.0195 -2.44141 16.3184 1.25 11.709 1.25 Z M 11.6895 -2.41211 C 12.207 -2.41211 12.5195 -2.77344 12.5195 -3.33984 L 12.5195 -6.23047 L 15.5762 -6.23047 C 16.123 -6.23047 16.5039 -6.51367 16.5039 -7.03125 C 16.5039 -7.55859 16.1426 -7.86133 15.5762 -7.86133 L 12.5195 -7.86133 L 12.5195 -10.9277 C 12.5195 -11.5039 12.207 -11.8555 11.6895 -11.8555 C 11.1719 -11.8555 10.8789 -11.4844 10.8789 -10.9277 L 10.8789 -7.86133 L 7.83203 -7.86133 C 7.26562 -7.86133 6.89453 -7.55859 6.89453 -7.03125 C 6.89453 -6.51367 7.28516 -6.23047 7.83203 -6.23047 L 10.8789 -6.23047 L 10.8789 -3.33984 C 10.8789 -2.79297 11.1719 -2.41211 11.6895 -2.41211 Z"/>
  </g>
  <g id="" transform="matrix(1 0 0 1 304.924 1933)">
   <path d="M 14.9707 5.67383 C 21.9336 5.67383 27.6953 -0.078125 27.6953 -7.04102 C 27.6953 -14.0039 21.9238 -19.7559 14.9609 -19.7559 C 8.00781 -19.7559 2.25586 -14.0039 2.25586 -7.04102 C 2.25586 -0.078125 8.01758 5.67383 14.9707 5.67383 Z M 14.9707 3.85742 C 8.93555 3.85742 4.08203 -1.00586 4.08203 -7.04102 C 4.08203 -13.0762 8.92578 -17.9395 14.9609 -17.9395 C 21.0059 -17.9395 25.8594 -13.0762 25.8691 -7.04102 C 25.8789 -1.00586 21.0156 3.85742 14.9707 3.85742 Z M 14.9512 -1.06445 C 15.5176 -1.06445 15.8691 -1.45508 15.8691 -2.06055 L 15.8691 -6.13281 L 20.1074 -6.13281 C 20.6934 -6.13281 21.1133 -6.46484 21.1133 -7.02148 C 21.1133 -7.59766 20.7227 -7.93945 20.1074 -7.93945 L 15.8691 -7.93945 L 15.8691 -12.1875 C 15.8691 -12.8027 15.5176 -13.1934 14.9512 -13.1934 C 14.3848 -13.1934 14.0625 -12.7832 14.0625 -12.1875 L 14.0625 -7.93945 L 9.83398 -7.93945 C 9.21875 -7.93945 8.80859 -7.59766 8.80859 -7.02148 C 8.80859 -6.46484 9.23828 -6.13281 9.83398 -6.13281 L 14.0625 -6.13281 L 14.0625 -2.06055 C 14.0625 -1.47461 14.3848 -1.06445 14.9512 -1.06445 Z"/>
  </g>
  <text style="stroke:none;fill:black;font-family:-apple-system,&quot;SF Pro Display&quot;,&quot;SF Pro Text&quot;,Helvetica,sans-serif;font-weight:bold;" transform="matrix(1 0 0 1 263 1953)">Design Variations</text>
  <text style="stroke:none;fill:black;font-family:-apple-system,&quot;SF Pro Display&quot;,&quot;SF Pro Text&quot;,Helvetica,sans-serif;" transform="matrix(1 0 0 1 263 1971)">Symbols are supported in up to nine weights and three scales.</text>
  <text style="stroke:none;fill:black;font-family:-apple-system,&quot;SF Pro Display&quot;,&quot;SF Pro Text&quot;,Helvetica,sans-serif;" transform="matrix(1 0 0 1 263 1989)">For optimal layout with text and other symbols, vertically align</text>
  <text style="stroke:none;fill:black;font-family:-apple-system,&quot;SF Pro Display&quot;,&quot;SF Pro Text&quot;,Helvetica,sans-serif;" transform="matrix(1 0 0 1 263 2007)">symbols with the adjacent text.</text>
  <rect height="14" id="" style="fill:#00AEEF;stroke:none;opacity:0.4;" width="3" x="776" y="1919"/>
  <g id="" transform="matrix(1 0 0 1 779 1933)">
   <path d="M 10.5273 0 L 12.373 0 L 7.17773 -14.0918 L 5.43945 -14.0918 L 0.244141 0 L 2.08984 0 L 3.50586 -4.0332 L 9.11133 -4.0332 Z M 6.2793 -11.9531 L 6.33789 -11.9531 L 8.59375 -5.52734 L 4.02344 -5.52734 Z"/>
  </g>
  <rect height="14" id="" style="fill:#00AEEF;stroke:none;opacity:0.4;" width="3" x="791.617" y="1919"/>
  <text style="stroke:none;fill:black;font-family:-apple-system,&quot;SF Pro Display&quot;,&quot;SF Pro Text&quot;,Helvetica,sans-serif;font-weight:bold;" transform="matrix(1 0 0 1 776 1953)">Margins</text>
  <text style="stroke:none;fill:black;font-family:-apple-system,&quot;SF Pro Display&quot;,&quot;SF Pro Text&quot;,Helvetica,sans-serif;" transform="matrix(1 0 0 1 776 1971)">Leading and trailing margins on the left and right side of each symbol</text>
  <text style="stroke:none;fill:black;font-family:-apple-system,&quot;SF Pro Display&quot;,&quot;SF Pro Text&quot;,Helvetica,sans-serif;" transform="matrix(1 0 0 1 776 1989)">can be adjusted by modifying the width of the blue rectangles.</text>
  <text style="stroke:none;fill:black;font-family:-apple-system,&quot;SF Pro Display&quot;,&quot;SF Pro Text&quot;,Helvetica,sans-serif;" transform="matrix(1 0 0 1 776 2007)">Modifications are automatically applied proportionally to all</text>
  <text style="stroke:none;fill:black;font-family:-apple-system,&quot;SF Pro Display&quot;,&quot;SF Pro Text&quot;,Helvetica,sans-serif;" transform="matrix(1 0 0 1 776 2025)">scales and weights.</text>
  <g id="" transform="matrix(1 0 0 1 1289 1933)">
   <path d="M 2.83203 3.11523 L 4.375 4.6582 C 5.22461 5.48828 6.19141 5.41992 7.06055 4.46289 L 17.2754 -6.66016 C 17.7051 -6.36719 18.0957 -6.37695 18.5645 -6.47461 L 19.6094 -6.68945 L 20.3027 -5.99609 L 20.2539 -5.47852 C 20.1855 -4.95117 20.3516 -4.53125 20.8496 -4.0332 L 21.6602 -3.22266 C 22.168 -2.71484 22.8223 -2.68555 23.3008 -3.16406 L 26.5527 -6.41602 C 27.0312 -6.89453 27.0117 -7.54883 26.5039 -8.05664 L 25.6836 -8.87695 C 25.1855 -9.375 24.7754 -9.55078 24.2383 -9.47266 L 23.7109 -9.41406 L 23.0566 -10.0781 L 23.3398 -11.2207 C 23.4863 -11.7871 23.3398 -12.2559 22.7148 -12.8613 L 20.3027 -15.2539 C 16.7578 -18.7793 12.2266 -18.6719 9.11133 -15.5371 C 8.69141 -15.1074 8.64258 -14.5215 8.91602 -14.0918 C 9.15039 -13.7207 9.62891 -13.4961 10.2734 -13.6621 C 11.7871 -14.043 13.3008 -13.9258 14.7852 -12.9199 L 14.1602 -11.3379 C 13.9258 -10.752 13.9453 -10.2734 14.1797 -9.83398 L 3.01758 0.439453 C 2.08008 1.30859 1.97266 2.25586 2.83203 3.11523 Z M 10.6738 -15.1465 C 13.3398 -17.1387 16.6504 -16.8262 19.0527 -14.4141 L 21.6797 -11.8066 C 21.9141 -11.5723 21.9434 -11.3867 21.8848 -11.0938 L 21.5039 -9.53125 L 23.0762 -7.95898 L 24.043 -8.04688 C 24.3262 -8.07617 24.4141 -8.05664 24.6387 -7.83203 L 25.2637 -7.20703 L 22.5098 -4.46289 L 21.8848 -5.07812 C 21.6602 -5.30273 21.6406 -5.40039 21.6699 -5.68359 L 21.7578 -6.64062 L 20.1953 -8.20312 L 18.5742 -7.89062 C 18.291 -7.83203 18.1445 -7.83203 17.9102 -8.07617 L 15.7324 -10.2539 C 15.5078 -10.4883 15.4785 -10.625 15.6055 -10.9473 L 16.5527 -13.2227 C 14.9512 -14.7559 12.8418 -15.6055 10.8008 -14.9512 C 10.7129 -14.9219 10.6445 -14.9414 10.6152 -14.9805 C 10.5859 -15.0293 10.5859 -15.0781 10.6738 -15.1465 Z M 4.10156 2.41211 C 3.61328 1.91406 3.78906 1.61133 4.12109 1.30859 L 15.0781 -8.80859 L 16.3086 -7.57812 L 6.15234 3.34961 C 5.84961 3.68164 5.46875 3.7793 5.06836 3.37891 Z"/>
  </g>
  <text style="stroke:none;fill:black;font-family:-apple-system,&quot;SF Pro Display&quot;,&quot;SF Pro Text&quot;,Helvetica,sans-serif;font-weight:bold;" transform="matrix(1 0 0 1 1289 1953)">Exporting</text>
  <text style="stroke:none;fill:black;font-family:-apple-system,&quot;SF Pro Display&quot;,&quot;SF Pro Text&quot;,Helvetica,sans-serif;" transform="matrix(1 0 0 1 1289 1971)">Symbols should be outlined when exporting to ensure the</text>
  <text style="stroke:none;fill:black;font-family:-apple-system,&quot;SF Pro Display&quot;,&quot;SF Pro Text&quot;,Helvetica,sans-serif;" transform="matrix(1 0 0 1 1289 1989)">design is preserved when submitting to Xcode.</text>
  <text id="template-version" style="stroke:none;fill:black;font-family:-apple-system,&quot;SF Pro Display&quot;,&quot;SF Pro Text&quot;,Helvetica,sans-serif;text-anchor:end;" transform="matrix(1 0 0 1 3036 1933)">Template v.1.0</text>
  <text style="stroke:none;fill:black;font-family:-apple-system,&quot;SF Pro Display&quot;,&quot;SF Pro Text&quot;,Helvetica,sans-serif;text-anchor:end;" transform="matrix(1 0 0 1 3036 1951)">Generated from arrowshape.turn.up.right.circle.fill</text>
  <text style="stroke:none;fill:black;font-family:-apple-system,&quot;SF Pro Display&quot;,&quot;SF Pro Text&quot;,Helvetica,sans-serif;text-anchor:end;" transform="matrix(1 0 0 1 3036 1969)">Typeset at 100 points</text>
  <text style="stroke:none;fill:black;font-family:-apple-system,&quot;SF Pro Display&quot;,&quot;SF Pro Text&quot;,Helvetica,sans-serif;" transform="matrix(1 0 0 1 263 726)">Small</text>
  <text style="stroke:none;fill:black;font-family:-apple-system,&quot;SF Pro Display&quot;,&quot;SF Pro Text&quot;,Helvetica,sans-serif;" transform="matrix(1 0 0 1 263 1156)">Medium</text>
  <text style="stroke:none;fill:black;font-family:-apple-system,&quot;SF Pro Display&quot;,&quot;SF Pro Text&quot;,Helvetica,sans-serif;" transform="matrix(1 0 0 1 263 1586)">Large</text>
 </g>
 <g id="Guides">
  <g id="H-reference" style="fill:#27AAE1;stroke:none;" transform="matrix(1 0 0 1 339 696)">
   <path d="M 54.9316 0 L 57.666 0 L 30.5664 -70.459 L 28.0762 -70.459 L 0.976562 0 L 3.66211 0 L 12.9395 -24.4629 L 45.7031 -24.4629 Z M 29.1992 -67.0898 L 29.4434 -67.0898 L 44.8242 -26.709 L 13.8184 -26.709 Z"/>
  </g>
  <line id="Baseline-S" style="fill:none;stroke:#27AAE1;opacity:1;stroke-width:0.577;" x1="263" x2="3036" y1="696" y2="696"/>
  <line id="Capline-S" style="fill:none;stroke:#27AAE1;opacity:1;stroke-width:0.577;" x1="263" x2="3036" y1="625.541" y2="625.541"/>
  <g id="H-reference" style="fill:#27AAE1;stroke:none;" transform="matrix(1 0 0 1 339 1126)">
   <path d="M 54.9316 0 L 57.666 0 L 30.5664 -70.459 L 28.0762 -70.459 L 0.976562 0 L 3.66211 0 L 12.9395 -24.4629 L 45.7031 -24.4629 Z M 29.1992 -67.0898 L 29.4434 -67.0898 L 44.8242 -26.709 L 13.8184 -26.709 Z"/>
  </g>
  <line id="Baseline-M" style="fill:none;stroke:#27AAE1;opacity:1;stroke-width:0.577;" x1="263" x2="3036" y1="1126" y2="1126"/>
  <line id="Capline-M" style="fill:none;stroke:#27AAE1;opacity:1;stroke-width:0.577;" x1="263" x2="3036" y1="1055.54" y2="1055.54"/>
  <g id="H-reference" style="fill:#27AAE1;stroke:none;" transform="matrix(1 0 0 1 339 1556)">
   <path d="M 54.9316 0 L 57.666 0 L 30.5664 -70.459 L 28.0762 -70.459 L 0.976562 0 L 3.66211 0 L 12.9395 -24.4629 L 45.7031 -24.4629 Z M 29.1992 -67.0898 L 29.4434 -67.0898 L 44.8242 -26.709 L 13.8184 -26.709 Z"/>
  </g>
  <line id="Baseline-L" style="fill:none;stroke:#27AAE1;opacity:1;stroke-width:0.577;" x1="263" x2="3036" y1="1556" y2="1556"/>
  <line id="Capline-L" style="fill:none;stroke:#27AAE1;opacity:1;stroke-width:0.577;" x1="263" x2="3036" y1="1485.54" y2="1485.54"/>
  <rect height="119.336" id="left-margin" style="fill:#00AEEF;stroke:none;opacity:0.4;" width="8.74023" x="1391.3" y="1030.79"/>
  <rect height="119.336" id="right-margin" style="fill:#00AEEF;stroke:none;opacity:0.4;" width="8.74023" x="1499.65" y="1030.79"/>
 </g>
 <g id="Symbols">
  <g id="Black-L" transform="matrix(1 0 0 1 2854.05 1556)">
   <path d="M 79.3457 32.9102 C 116.748 32.9102 147.412 2.29492 147.412 -35.1074 C 147.412 -72.5586 116.748 -103.174 79.2969 -103.174 C 41.8945 -103.174 11.2793 -72.5586 11.2793 -35.1074 C 11.2793 2.29492 41.9434 32.9102 79.3457 32.9102 Z M 82.1289 -8.05664 C 78.7109 -8.05664 76.1719 -10.6445 76.1719 -14.0137 L 76.1719 -22.998 L 75.8301 -22.998 C 66.5527 -22.998 61.6211 -18.8477 58.252 -12.8906 C 56.4941 -9.76562 54.7363 -8.64258 52.1484 -8.64258 C 48.3887 -8.64258 46.2402 -12.4023 46.2402 -20.0195 C 46.2402 -41.2109 56.5918 -53.7598 75.8301 -53.7598 L 76.1719 -53.7598 L 76.1719 -62.8906 C 76.1719 -66.2598 78.7109 -68.9453 82.1777 -68.9453 C 84.2773 -68.9453 85.8398 -68.1152 88.1836 -66.0156 L 113.135 -42.9688 C 114.355 -41.8457 115.088 -40.0879 115.088 -38.4766 C 115.088 -37.0117 114.404 -35.1074 113.135 -33.9355 L 88.1836 -10.8887 C 86.0352 -8.93555 84.3262 -8.05664 82.1289 -8.05664 Z"/>
  </g>
  <g id="Heavy-L" transform="matrix(1 0 0 1 2558.39 1556)">
   <path d="M 78.2715 31.8848 C 115.088 31.8848 145.312 1.66016 145.312 -35.1074 C 145.312 -71.9238 115.039 -102.148 78.2715 -102.148 C 41.4551 -102.148 11.2793 -71.9238 11.2793 -35.1074 C 11.2793 1.66016 41.5039 31.8848 78.2715 31.8848 Z M 81.5918 -8.1543 C 78.5156 -8.1543 76.1719 -10.5469 76.1719 -13.623 L 76.1719 -23.6328 L 75.6836 -23.6328 C 65.2832 -23.6328 59.4727 -19.6289 55.5664 -12.4023 C 53.9551 -9.57031 52.2949 -8.64258 50 -8.64258 C 46.7285 -8.64258 44.7266 -11.8164 44.7266 -18.2617 C 44.7266 -40.625 55.3711 -53.7109 75.6836 -53.7109 L 76.1719 -53.7109 L 76.1719 -63.8672 C 76.1719 -66.9434 78.5156 -69.3848 81.6406 -69.3848 C 83.5938 -69.3848 85.0586 -68.6035 87.207 -66.6504 L 112.646 -43.0664 C 113.965 -41.8457 114.6 -40.2832 114.6 -38.7695 C 114.6 -37.3535 114.014 -35.6445 112.646 -34.4238 L 87.207 -10.8398 C 85.2051 -8.98438 83.6426 -8.1543 81.5918 -8.1543 Z"/>
  </g>
  <g id="Bold-L" transform="matrix(1 0 0 1 2262.88 1556)">
   <path d="M 77.0996 30.7129 C 113.232 30.7129 142.92 0.976562 142.92 -35.1074 C 142.92 -71.2402 113.184 -100.977 77.0508 -100.977 C 40.9668 -100.977 11.2793 -71.2402 11.2793 -35.1074 C 11.2793 0.976562 41.0156 30.7129 77.0996 30.7129 Z M 81.0059 -8.30078 C 78.2227 -8.30078 76.2207 -10.4004 76.2207 -13.1348 L 76.2207 -24.3652 L 75.4883 -24.3652 C 63.8184 -24.3652 57.0312 -20.5078 52.4902 -11.9141 C 51.123 -9.375 49.5117 -8.59375 47.5586 -8.59375 C 44.873 -8.59375 43.0176 -11.2305 43.0176 -16.3086 C 43.0176 -39.9414 54.0039 -53.6133 75.4883 -53.6133 L 76.2207 -53.6133 L 76.2207 -64.9414 C 76.2207 -67.6758 78.2227 -69.873 81.0547 -69.873 C 82.8613 -69.873 84.1797 -69.0918 86.084 -67.334 L 112.158 -43.1641 C 113.477 -41.8945 114.062 -40.4297 114.062 -39.0625 C 114.062 -37.793 113.525 -36.2305 112.158 -34.9609 L 86.084 -10.7422 C 84.3262 -9.08203 82.8613 -8.30078 81.0059 -8.30078 Z"/>
  </g>
  <g id="Semibold-L" transform="matrix(1 0 0 1 1966.97 1556)">
   <path d="M 76.2695 29.8828 C 111.914 29.8828 141.309 0.488281 141.309 -35.1074 C 141.309 -70.752 111.865 -100.146 76.2695 -100.146 C 40.625 -100.146 11.2793 -70.752 11.2793 -35.1074 C 11.2793 0.488281 40.6738 29.8828 76.2695 29.8828 Z M 80.5664 -8.39844 C 78.0762 -8.39844 76.2695 -10.3027 76.2695 -12.793 L 76.2695 -24.9023 L 75.3906 -24.9023 C 62.8418 -24.9023 55.3711 -21.0938 50.3906 -11.5723 C 49.1211 -9.22852 47.6562 -8.59375 45.8984 -8.59375 C 43.5547 -8.59375 41.7969 -10.791 41.7969 -14.9902 C 41.7969 -39.502 53.0273 -53.5645 75.3906 -53.5645 L 76.2695 -53.5645 L 76.2695 -65.7227 C 76.2695 -68.1641 78.0762 -70.2148 80.6152 -70.2148 C 82.3242 -70.2148 83.5449 -69.4824 85.3516 -67.8223 L 111.816 -43.2129 C 113.184 -41.9434 113.672 -40.5762 113.672 -39.3066 C 113.672 -38.0859 113.184 -36.6211 111.816 -35.3516 L 85.3516 -10.6445 C 83.6914 -9.17969 82.3242 -8.39844 80.5664 -8.39844 Z"/>
  </g>
  <g id="Medium-L" transform="matrix(1 0 0 1 1670.87 1556)">
   <path d="M 75.6836 29.248 C 110.938 29.248 140.088 0.146484 140.088 -35.1074 C 140.088 -70.4102 110.889 -99.5117 75.6348 -99.5117 C 40.3809 -99.5117 11.2793 -70.4102 11.2793 -35.1074 C 11.2793 0.146484 40.3809 29.248 75.6836 29.248 Z M 80.2734 -8.44727 C 77.9297 -8.44727 76.2695 -10.2051 76.2695 -12.5 L 76.2695 -25.293 L 75.293 -25.293 C 62.1094 -25.293 54.1016 -21.5332 48.7793 -11.3281 C 47.6562 -9.13086 46.1914 -8.59375 44.6289 -8.59375 C 42.5781 -8.59375 40.918 -10.4492 40.918 -13.9648 C 40.918 -39.1602 52.2949 -53.5156 75.293 -53.5156 L 76.2695 -53.5156 L 76.2695 -66.2598 C 76.2695 -68.5547 77.9297 -70.459 80.3223 -70.459 C 81.9336 -70.459 83.1055 -69.7266 84.7656 -68.1641 L 111.523 -43.2617 C 112.939 -41.9922 113.379 -40.6738 113.379 -39.4531 C 113.379 -38.2812 112.939 -36.9629 111.523 -35.6445 L 84.7656 -10.5957 C 83.252 -9.22852 81.9336 -8.44727 80.2734 -8.44727 Z"/>
  </g>
  <g id="Regular-L" transform="matrix(1 0 0 1 1374.97 1556)">
   <path d="M 74.8535 28.4668 C 109.668 28.4668 138.477 -0.341797 138.477 -35.1074 C 138.477 -69.9219 109.619 -98.7305 74.8047 -98.7305 C 40.0391 -98.7305 11.2793 -69.9219 11.2793 -35.1074 C 11.2793 -0.341797 40.0879 28.4668 74.8535 28.4668 Z M 79.8828 -8.54492 C 77.7832 -8.54492 76.3184 -10.1074 76.3184 -12.207 L 76.3184 -25.7812 L 75.1465 -25.7812 C 61.084 -25.7812 52.4414 -22.1191 46.7285 -10.9863 C 45.7031 -8.98438 44.3359 -8.54492 42.9688 -8.54492 C 41.3086 -8.54492 39.7461 -10.0098 39.7461 -12.6465 C 39.7461 -38.6719 51.3672 -53.4668 75.1465 -53.4668 L 76.3184 -53.4668 L 76.3184 -66.9922 C 76.3184 -69.0918 77.7832 -70.8008 79.9316 -70.8008 C 81.4453 -70.8008 82.4707 -70.0684 84.0332 -68.6523 L 111.182 -43.3105 C 112.598 -41.9922 112.988 -40.7715 112.988 -39.6973 C 112.988 -38.5742 112.598 -37.3535 111.182 -36.0352 L 84.0332 -10.5469 C 82.6172 -9.27734 81.3965 -8.54492 79.8828 -8.54492 Z"/>
  </g>
  <g id="Light-L" transform="matrix(1 0 0 1 1079.18 1556)">
   <path d="M 73.9258 27.5879 C 108.301 27.5879 136.621 -0.732422 136.621 -35.1074 C 136.621 -69.4336 108.252 -97.7539 73.9258 -97.7539 C 39.5508 -97.7539 11.2793 -69.4336 11.2793 -35.1074 C 11.2793 -0.732422 39.5996 27.5879 73.9258 27.5879 Z M 78.8574 -8.25195 C 77.002 -8.25195 75.8301 -9.66797 75.8301 -11.4746 L 75.8301 -25.8789 L 74.4629 -25.8789 C 59.1797 -25.8789 49.9512 -21.7773 44.4824 -10.498 C 43.6035 -8.74023 42.5781 -8.25195 41.2598 -8.25195 C 39.7949 -8.25195 38.4766 -9.52148 38.4766 -11.7676 C 38.4766 -39.1113 51.3672 -52.8809 74.4629 -52.8809 L 75.8301 -52.8809 L 75.8301 -67.3828 C 75.8301 -69.1895 77.002 -70.7031 78.8574 -70.7031 C 80.2246 -70.7031 81.2012 -70.0195 82.4219 -68.8965 L 110.107 -43.1152 C 111.719 -41.6504 112.061 -40.5273 112.061 -39.4531 C 112.061 -38.4277 111.67 -37.3047 110.107 -35.791 L 82.4219 -9.96094 C 81.2988 -8.93555 80.1758 -8.25195 78.8574 -8.25195 Z"/>
  </g>
  <g id="Thin-L" transform="matrix(1 0 0 1 783.693 1556)">
   <path d="M 72.7051 26.416 C 106.494 26.416 134.18 -1.26953 134.18 -35.0586 C 134.18 -68.7988 106.494 -96.4844 72.7051 -96.4844 C 38.9648 -96.4844 11.2793 -68.7988 11.2793 -35.0586 C 11.2793 -1.26953 38.9648 26.416 72.7051 26.416 Z M 77.4902 -7.86133 C 75.9766 -7.86133 75.1465 -9.0332 75.1465 -10.498 L 75.1465 -25.9766 L 73.5352 -25.9766 C 56.5918 -25.9766 46.7285 -21.3379 41.5527 -9.91211 C 40.8691 -8.39844 40.1855 -7.86133 39.0625 -7.86133 C 37.793 -7.86133 36.7676 -8.88672 36.7676 -10.5469 C 36.7676 -39.6484 51.3184 -52.0996 73.5352 -52.0996 L 75.1465 -52.0996 L 75.1465 -67.8711 C 75.1465 -69.3359 75.9766 -70.5566 77.4902 -70.5566 C 78.6133 -70.5566 79.541 -69.9707 80.2734 -69.1895 L 108.643 -42.8711 C 110.498 -41.1621 110.791 -40.1855 110.791 -39.209 C 110.791 -38.2324 110.449 -37.207 108.643 -35.498 L 80.2734 -9.17969 C 79.541 -8.44727 78.6133 -7.86133 77.4902 -7.86133 Z"/>
  </g>
  <g id="Ultralight-L" transform="matrix(1 0 0 1 487.616 1556)">
   <path d="M 72.1191 25.7812 C 105.566 25.7812 132.91 -1.5625 132.91 -35.0098 C 132.91 -68.5059 105.566 -95.8496 72.1191 -95.8496 C 38.623 -95.8496 11.2793 -68.5059 11.2793 -35.0098 C 11.2793 -1.5625 38.623 25.7812 72.1191 25.7812 Z M 76.8066 -7.66602 C 75.4395 -7.66602 74.8047 -8.74023 74.8047 -10.0098 L 74.8047 -26.0742 L 73.0469 -26.0742 C 55.2734 -26.0742 45.0684 -21.0938 40.0879 -9.61914 C 39.4531 -8.25195 39.0137 -7.66602 37.8906 -7.66602 C 36.7676 -7.66602 35.8887 -8.59375 35.8887 -9.96094 C 35.8887 -39.8926 51.3184 -51.709 73.0469 -51.709 L 74.8047 -51.709 L 74.8047 -68.1152 C 74.8047 -69.3848 75.4395 -70.459 76.8066 -70.459 C 77.7832 -70.459 78.6621 -69.9219 79.1992 -69.3848 L 107.91 -42.7734 C 109.912 -40.9668 110.107 -39.9902 110.107 -39.0625 C 110.107 -38.1348 109.814 -37.1582 107.91 -35.3516 L 79.1992 -8.78906 C 78.6621 -8.20312 77.7832 -7.66602 76.8066 -7.66602 Z"/>
  </g>
  <g id="Black-M" transform="matrix(1 0 0 1 2870.97 1126)">
   <path d="M 62.4023 18.5547 C 91.9922 18.5547 116.113 -5.56641 116.113 -35.1562 C 116.113 -64.7461 91.9922 -88.8184 62.4023 -88.8184 C 32.8125 -88.8184 8.74023 -64.7461 8.74023 -35.1562 C 8.74023 -5.56641 32.8125 18.5547 62.4023 18.5547 Z M 63.8672 -13.8672 C 60.8887 -13.8672 58.6914 -16.1133 58.6914 -18.9941 L 58.6914 -24.9023 L 58.5938 -24.9023 C 52.2949 -24.9023 49.3652 -21.3379 47.6562 -18.2617 C 46.1426 -15.625 44.7754 -14.502 42.4316 -14.502 C 38.9648 -14.502 37.207 -18.0176 37.207 -25.3418 C 37.207 -40.8691 45.5078 -49.4141 58.5938 -49.4141 L 58.6914 -49.4141 L 58.6914 -55.5664 C 58.6914 -58.4473 60.8887 -60.6934 63.8672 -60.6934 C 65.5273 -60.6934 66.9434 -60.0586 68.7988 -58.3984 L 87.6953 -41.0156 C 88.7207 -40.0879 89.3555 -38.6719 89.3555 -37.2559 C 89.3555 -36.0352 88.7695 -34.375 87.6953 -33.4473 L 68.7988 -16.1621 C 67.041 -14.5508 65.6738 -13.8672 63.8672 -13.8672 Z"/>
  </g>
  <g id="Heavy-M" transform="matrix(1 0 0 1 2575.19 1126)">
   <path d="M 61.5234 17.627 C 90.5273 17.627 114.258 -6.10352 114.258 -35.1562 C 114.258 -64.1602 90.5273 -87.8906 61.4746 -87.8906 C 32.4707 -87.8906 8.74023 -64.1602 8.74023 -35.1562 C 8.74023 -6.10352 32.4707 17.627 61.5234 17.627 Z M 63.5254 -14.0625 C 60.8398 -14.0625 58.8867 -16.1133 58.8867 -18.7012 L 58.8867 -25.5859 L 58.5938 -25.5859 C 51.416 -25.5859 47.6562 -22.2656 45.2637 -17.9199 C 43.8965 -15.4785 42.5293 -14.5508 40.5273 -14.5508 C 37.5488 -14.5508 35.8887 -17.5293 35.8887 -23.6328 C 35.8887 -40.1367 44.1895 -49.4629 58.5938 -49.4629 L 58.8867 -49.4629 L 58.8867 -56.4941 C 58.8867 -59.1309 60.8398 -61.2305 63.5254 -61.2305 C 65.1367 -61.2305 66.4062 -60.5957 68.1641 -58.9844 L 87.5 -41.1621 C 88.4766 -40.2344 89.0625 -38.916 89.0625 -37.6465 C 89.0625 -36.4746 88.5254 -34.9609 87.5 -34.0332 L 68.1641 -16.2598 C 66.5039 -14.7461 65.2344 -14.0625 63.5254 -14.0625 Z"/>
  </g>
  <g id="Bold-M" transform="matrix(1 0 0 1 2279.5 1126)">
   <path d="M 60.498 16.6016 C 88.8672 16.6016 112.207 -6.73828 112.207 -35.1562 C 112.207 -63.5742 88.8672 -86.9141 60.4492 -86.9141 C 32.0312 -86.9141 8.74023 -63.5742 8.74023 -35.1562 C 8.74023 -6.73828 32.0801 16.6016 60.498 16.6016 Z M 63.1348 -14.3066 C 60.791 -14.3066 59.082 -16.0645 59.082 -18.4082 L 59.082 -26.3672 L 58.5938 -26.3672 C 50.3906 -26.3672 45.7031 -23.291 42.5781 -17.4805 C 41.3574 -15.332 40.0879 -14.5996 38.3301 -14.5996 C 35.9375 -14.5996 34.375 -16.9922 34.375 -21.7773 C 34.375 -39.3066 42.6758 -49.5117 58.5938 -49.5117 L 59.082 -49.5117 L 59.082 -57.6172 C 59.082 -59.9121 60.791 -61.7676 63.1836 -61.7676 C 64.6973 -61.7676 65.7715 -61.1816 67.4316 -59.668 L 87.2559 -41.3086 C 88.2324 -40.3809 88.7207 -39.1602 88.7207 -38.0371 C 88.7207 -36.9629 88.2812 -35.6445 87.2559 -34.7168 L 67.4316 -16.3086 C 65.918 -14.9414 64.6973 -14.3066 63.1348 -14.3066 Z"/>
  </g>
  <g id="Semibold-M" transform="matrix(1 0 0 1 1983.5 1126)">
   <path d="M 59.7656 15.8691 C 87.7441 15.8691 110.791 -7.17773 110.791 -35.1562 C 110.791 -63.1348 87.6953 -86.1816 59.7656 -86.1816 C 31.7871 -86.1816 8.74023 -63.1348 8.74023 -35.1562 C 8.74023 -7.17773 31.7871 15.8691 59.7656 15.8691 Z M 62.8906 -14.4531 C 60.791 -14.4531 59.1797 -16.0645 59.1797 -18.1641 L 59.1797 -26.9043 L 58.6426 -26.9043 C 49.6582 -26.9043 44.3848 -24.0234 40.7227 -17.1875 C 39.5996 -15.2344 38.3789 -14.6484 36.8652 -14.6484 C 34.8145 -14.6484 33.3496 -16.6016 33.3496 -20.459 C 33.3496 -38.7207 41.6504 -49.5605 58.6426 -49.5605 L 59.1797 -49.5605 L 59.1797 -58.3496 C 59.1797 -60.4492 60.791 -62.1582 62.9395 -62.1582 C 64.3555 -62.1582 65.3809 -61.5723 66.8945 -60.1562 L 87.0605 -41.4062 C 88.0859 -40.4785 88.5254 -39.3555 88.5254 -38.3301 C 88.5254 -37.3047 88.0859 -36.084 87.0605 -35.1562 L 66.8945 -16.3574 C 65.5273 -15.0879 64.3555 -14.4531 62.8906 -14.4531 Z"/>
  </g>
  <g id="Medium-M" transform="matrix(1 0 0 1 1687.3 1126)">
   <path d="M 59.2285 15.332 C 86.9141 15.332 109.766 -7.51953 109.766 -35.1562 C 109.766 -62.793 86.8652 -85.6445 59.1797 -85.6445 C 31.543 -85.6445 8.74023 -62.793 8.74023 -35.1562 C 8.74023 -7.51953 31.5918 15.332 59.2285 15.332 Z M 62.6953 -14.5508 C 60.7422 -14.5508 59.2773 -16.0645 59.2773 -18.0176 L 59.2773 -27.3438 L 58.6426 -27.3438 C 49.1699 -27.3438 43.3594 -24.5605 39.3066 -16.9434 C 38.2812 -15.1367 37.0605 -14.6973 35.7422 -14.6973 C 33.9844 -14.6973 32.5684 -16.3574 32.5684 -19.4824 C 32.5684 -38.2324 40.8691 -49.6094 58.6426 -49.6094 L 59.2773 -49.6094 L 59.2773 -58.9355 C 59.2773 -60.8398 60.7422 -62.4512 62.7441 -62.4512 C 64.1113 -62.4512 65.0391 -61.8652 66.5039 -60.498 L 86.9629 -41.5039 C 87.9395 -40.5762 88.3301 -39.502 88.3301 -38.5254 C 88.3301 -37.5488 87.9395 -36.4746 86.9629 -35.498 L 66.5039 -16.4062 C 65.1855 -15.1855 64.1113 -14.5508 62.6953 -14.5508 Z"/>
  </g>
  <g id="Regular-M" transform="matrix(1 0 0 1 1391.3 1126)">
   <path d="M 58.5449 14.6484 C 85.791 14.6484 108.35 -7.95898 108.35 -35.1562 C 108.35 -62.4023 85.7422 -84.9609 58.4961 -84.9609 C 31.2988 -84.9609 8.74023 -62.4023 8.74023 -35.1562 C 8.74023 -7.95898 31.3477 14.6484 58.5449 14.6484 Z M 62.4512 -14.7461 C 60.6934 -14.7461 59.4238 -16.0156 59.4238 -17.7734 L 59.4238 -27.832 L 58.6426 -27.832 C 48.4375 -27.832 42.041 -25.293 37.4512 -16.6992 C 36.5723 -15.0391 35.3516 -14.7461 34.2285 -14.7461 C 32.8613 -14.7461 31.543 -15.9668 31.543 -18.2129 C 31.543 -37.6953 39.8438 -49.6582 58.6426 -49.6582 L 59.4238 -49.6582 L 59.4238 -59.668 C 59.4238 -61.377 60.6934 -62.8418 62.5 -62.8418 C 63.8184 -62.8418 64.6484 -62.2559 66.0156 -60.9863 L 86.7676 -41.6016 C 87.793 -40.6738 88.1348 -39.6973 88.1348 -38.7695 C 88.1348 -37.8906 87.793 -36.9141 86.7676 -35.9863 L 66.0156 -16.4551 C 64.7949 -15.332 63.7695 -14.7461 62.4512 -14.7461 Z"/>
  </g>
  <g id="Light-M" transform="matrix(1 0 0 1 1095.42 1126)">
   <path d="M 57.7148 13.8184 C 84.5215 13.8184 106.689 -8.30078 106.689 -35.1562 C 106.689 -61.9629 84.5215 -84.1309 57.666 -84.1309 C 30.8594 -84.1309 8.74023 -61.9629 8.74023 -35.1562 C 8.74023 -8.30078 30.9082 13.8184 57.7148 13.8184 Z M 61.5723 -14.4531 C 60.0098 -14.4531 58.9844 -15.625 58.9844 -17.1387 L 58.9844 -27.9297 L 58.0078 -27.9297 C 46.7285 -27.9297 39.8438 -24.9512 35.498 -16.2598 C 34.7168 -14.7949 33.7891 -14.4531 32.7148 -14.4531 C 31.4941 -14.4531 30.3711 -15.5273 30.3711 -17.4316 C 30.3711 -38.0371 39.7949 -49.1699 58.0078 -49.1699 L 58.9844 -49.1699 L 58.9844 -59.9609 C 58.9844 -61.4746 60.0098 -62.7441 61.5723 -62.7441 C 62.7441 -62.7441 63.5254 -62.207 64.5996 -61.1816 L 85.791 -41.4551 C 86.9629 -40.3809 87.2559 -39.4531 87.2559 -38.623 C 87.2559 -37.7441 86.9629 -36.8652 85.791 -35.791 L 64.5996 -15.918 C 63.623 -14.9902 62.6953 -14.4531 61.5723 -14.4531 Z"/>
  </g>
  <g id="Thin-M" transform="matrix(1 0 0 1 799.806 1126)">
   <path d="M 56.6406 12.793 C 82.9102 12.793 104.492 -8.78906 104.492 -35.1074 C 104.492 -61.377 82.9102 -82.959 56.5918 -82.959 C 30.3223 -82.959 8.74023 -61.377 8.74023 -35.1074 C 8.74023 -8.78906 30.3223 12.793 56.6406 12.793 Z M 60.3516 -14.1113 C 59.082 -14.1113 58.3984 -15.0879 58.3984 -16.2598 L 58.3984 -28.0273 L 57.1777 -28.0273 C 44.4336 -28.0273 36.9141 -24.5605 32.8613 -15.7715 C 32.2754 -14.502 31.6895 -14.1113 30.7617 -14.1113 C 29.7363 -14.1113 28.8574 -14.9414 28.8574 -16.3574 C 28.8574 -38.5254 39.7949 -48.4863 57.1777 -48.4863 L 58.3984 -48.4863 L 58.3984 -60.4004 C 58.3984 -61.6211 59.082 -62.5977 60.3516 -62.5977 C 61.2793 -62.5977 62.0117 -62.1582 62.6953 -61.4746 L 84.5215 -41.2109 C 85.8887 -39.9414 86.1328 -39.1602 86.1328 -38.3789 C 86.1328 -37.5977 85.8398 -36.7676 84.5215 -35.498 L 62.6953 -15.2344 C 62.0117 -14.5996 61.2793 -14.1113 60.3516 -14.1113 Z"/>
  </g>
  <g id="Ultralight-M" transform="matrix(1 0 0 1 503.656 1126)">
   <path d="M 56.0547 12.2559 C 82.0801 12.2559 103.369 -9.0332 103.369 -35.0586 C 103.369 -61.084 82.0801 -82.373 56.0547 -82.373 C 30.0293 -82.373 8.74023 -61.084 8.74023 -35.0586 C 8.74023 -9.0332 30.0293 12.2559 56.0547 12.2559 Z M 59.7168 -13.916 C 58.6426 -13.916 58.0566 -14.7949 58.0566 -15.8203 L 58.0566 -28.0762 L 56.7383 -28.0762 C 43.2129 -28.0762 35.4004 -24.3164 31.4941 -15.4785 C 31.0059 -14.3555 30.5664 -13.916 29.7363 -13.916 C 28.8086 -13.916 28.0762 -14.6484 28.0762 -15.8203 C 28.0762 -38.7695 39.7949 -48.1445 56.7383 -48.1445 L 58.0566 -48.1445 L 58.0566 -60.6445 C 58.0566 -61.6699 58.6426 -62.5488 59.7168 -62.5488 C 60.5469 -62.5488 61.2305 -62.1094 61.7188 -61.6211 L 83.8379 -41.1133 C 85.3516 -39.7461 85.5469 -38.9648 85.5469 -38.2324 C 85.5469 -37.5 85.3027 -36.7676 83.8379 -35.3516 L 61.7188 -14.8438 C 61.2305 -14.3555 60.5469 -13.916 59.7168 -13.916 Z"/>
  </g>
  <g id="Black-S" transform="matrix(1 0 0 1 2884.57 696)">
   <path d="M 48.8281 6.83594 C 71.9727 6.83594 90.8203 -12.0117 90.8203 -35.1562 C 90.8203 -58.3008 71.9727 -77.1484 48.8281 -77.1484 C 25.6836 -77.1484 6.83594 -58.3008 6.83594 -35.1562 C 6.83594 -12.0117 25.6836 6.83594 48.8281 6.83594 Z M 50 -18.5059 C 47.7051 -18.5059 45.9961 -20.2637 45.9961 -22.5098 L 45.9961 -27.1973 L 45.8984 -27.1973 C 40.918 -27.1973 38.5742 -24.4141 37.1582 -21.9238 C 35.9863 -19.873 34.9121 -18.9941 33.1055 -18.9941 C 30.4199 -18.9941 29.0527 -21.7285 29.0527 -27.3438 C 29.0527 -39.5996 35.5469 -46.3379 45.8984 -46.3379 L 45.9961 -46.3379 L 45.9961 -51.2207 C 45.9961 -53.4668 47.7051 -55.2246 50 -55.2246 C 51.3184 -55.2246 52.3926 -54.7363 53.8574 -53.418 L 68.7012 -39.7949 C 69.4824 -39.0625 69.9707 -37.9395 69.9707 -36.8652 C 69.9707 -35.8887 69.5312 -34.6191 68.7012 -33.8867 L 53.8574 -20.3125 C 52.4902 -19.043 51.416 -18.5059 50 -18.5059 Z"/>
  </g>
  <g id="Heavy-S" transform="matrix(1 0 0 1 2588.47 696)">
   <path d="M 48.2422 6.20117 C 70.9961 6.20117 89.5996 -12.4023 89.5996 -35.1562 C 89.5996 -57.9102 70.9961 -76.5625 48.1934 -76.5625 C 25.4395 -76.5625 6.83594 -57.9102 6.83594 -35.1562 C 6.83594 -12.4023 25.4395 6.20117 48.2422 6.20117 Z M 49.8535 -18.7012 C 47.7539 -18.7012 46.1914 -20.3125 46.1914 -22.3633 L 46.1914 -27.7344 L 45.9961 -27.7344 C 40.4297 -27.7344 37.5 -25.1465 35.5469 -21.6797 C 34.4727 -19.7754 33.3984 -19.043 31.7871 -19.043 C 29.4922 -19.043 28.1738 -21.3867 28.1738 -26.1719 C 28.1738 -38.9648 34.5215 -46.4355 45.9961 -46.4355 L 46.1914 -46.4355 L 46.1914 -51.9043 C 46.1914 -54.0039 47.7539 -55.6152 49.8535 -55.6152 C 51.123 -55.6152 52.0996 -55.127 53.5156 -53.8574 L 68.6523 -39.8926 C 69.3848 -39.209 69.8242 -38.1348 69.8242 -37.1582 C 69.8242 -36.2305 69.4336 -35.0586 68.6523 -34.375 L 53.5156 -20.4102 C 52.1973 -19.2383 51.1719 -18.7012 49.8535 -18.7012 Z"/>
  </g>
  <g id="Bold-S" transform="matrix(1 0 0 1 2292.44 696)">
   <path d="M 47.5586 5.51758 C 69.873 5.51758 88.2324 -12.8418 88.2324 -35.1562 C 88.2324 -57.5195 69.873 -75.8789 47.5098 -75.8789 C 25.1953 -75.8789 6.83594 -57.5195 6.83594 -35.1562 C 6.83594 -12.8418 25.1953 5.51758 47.5586 5.51758 Z M 49.707 -18.8965 C 47.8027 -18.8965 46.3867 -20.3125 46.3867 -22.168 L 46.3867 -28.3203 L 46.0938 -28.3203 C 39.8438 -28.3203 36.2793 -26.0254 33.7402 -21.3867 C 32.7637 -19.6777 31.6895 -19.1406 30.3223 -19.1406 C 28.418 -19.1406 27.1484 -21.0449 27.1484 -24.8047 C 27.1484 -38.2812 33.3496 -46.582 46.0938 -46.582 L 46.3867 -46.582 L 46.3867 -52.7344 C 46.3867 -54.5898 47.8027 -56.0547 49.707 -56.0547 C 50.9277 -56.0547 51.8066 -55.5664 53.125 -54.3457 L 68.5547 -40.0391 C 69.3359 -39.3555 69.7266 -38.3789 69.7266 -37.5 C 69.7266 -36.6211 69.3359 -35.5957 68.5547 -34.9121 L 53.125 -20.5566 C 51.9043 -19.4336 50.9277 -18.8965 49.707 -18.8965 Z"/>
  </g>
  <g id="Semibold-S" transform="matrix(1 0 0 1 1996.2 696)">
   <path d="M 47.0703 5.0293 C 69.0918 5.0293 87.3047 -13.1348 87.3047 -35.2051 C 87.3047 -57.2266 69.0918 -75.4395 47.0215 -75.4395 C 25 -75.4395 6.83594 -57.2266 6.83594 -35.2051 C 6.83594 -13.1348 25.0488 5.0293 47.0703 5.0293 Z M 49.5605 -19.043 C 47.8516 -19.043 46.5332 -20.3613 46.5332 -22.0703 L 46.5332 -28.7109 L 46.1426 -28.7109 C 39.4531 -28.7109 35.4492 -26.5625 32.4707 -21.1914 C 31.5918 -19.6289 30.5176 -19.1895 29.2969 -19.1895 C 27.6855 -19.1895 26.4648 -20.8008 26.4648 -23.877 C 26.4648 -37.793 32.5684 -46.6309 46.1426 -46.6309 L 46.5332 -46.6309 L 46.5332 -53.2715 C 46.5332 -54.9805 47.8516 -56.3965 49.6094 -56.3965 C 50.7812 -56.3965 51.5625 -55.9082 52.8809 -54.6875 L 68.5547 -40.1367 C 69.2871 -39.4531 69.6289 -38.5254 69.6289 -37.6953 C 69.6289 -36.9141 69.2871 -35.9375 68.5547 -35.2539 L 52.8809 -20.6055 C 51.709 -19.5312 50.7812 -19.043 49.5605 -19.043 Z"/>
  </g>
  <g id="Medium-S" transform="matrix(1 0 0 1 1699.83 696)">
   <path d="M 46.7285 4.6875 C 68.5547 4.6875 86.6211 -13.3789 86.6211 -35.2051 C 86.6211 -56.9824 68.5059 -75.0977 46.6797 -75.0977 C 24.8535 -75.0977 6.83594 -56.9824 6.83594 -35.2051 C 6.83594 -13.3789 24.9023 4.6875 46.7285 4.6875 Z M 49.4629 -19.1406 C 47.8516 -19.1406 46.6309 -20.3613 46.6309 -21.9727 L 46.6309 -29.0039 L 46.1914 -29.0039 C 39.1602 -29.0039 34.8145 -27.002 31.543 -21.0938 C 30.7129 -19.5801 29.6387 -19.2383 28.5645 -19.2383 C 27.1484 -19.2383 25.9277 -20.6055 25.9277 -23.1934 C 25.9277 -37.4512 31.9824 -46.7285 46.1914 -46.7285 L 46.6309 -46.7285 L 46.6309 -53.6621 C 46.6309 -55.2734 47.8516 -56.5918 49.5117 -56.5918 C 50.6348 -56.5918 51.416 -56.1523 52.6855 -54.9805 L 68.5059 -40.2344 C 69.2383 -39.5508 69.5312 -38.6719 69.5312 -37.8906 C 69.5312 -37.1094 69.2383 -36.2305 68.5059 -35.5469 L 52.6855 -20.7031 C 51.5137 -19.6289 50.6348 -19.1406 49.4629 -19.1406 Z"/>
  </g>
  <g id="Regular-S" transform="matrix(1 0 0 1 1403.58 696)">
   <path d="M 46.2402 4.19922 C 67.7734 4.19922 85.6934 -13.6719 85.6934 -35.2051 C 85.6934 -56.7383 67.7246 -74.6094 46.1914 -74.6094 C 24.707 -74.6094 6.83594 -56.7383 6.83594 -35.2051 C 6.83594 -13.6719 24.7559 4.19922 46.2402 4.19922 Z M 49.3652 -19.2871 C 47.9004 -19.2871 46.7773 -20.4102 46.7773 -21.875 L 46.7773 -29.3945 L 46.2402 -29.3945 C 38.7695 -29.3945 33.9844 -27.5879 30.3223 -20.8984 C 29.541 -19.4824 28.4668 -19.2871 27.5391 -19.2871 C 26.416 -19.2871 25.2441 -20.3613 25.2441 -22.2656 C 25.2441 -36.9629 31.2012 -46.7773 46.2402 -46.7773 L 46.7773 -46.7773 L 46.7773 -54.1992 C 46.7773 -55.6641 47.9004 -56.9336 49.4141 -56.9336 C 50.5371 -56.9336 51.1719 -56.4453 52.3926 -55.3223 L 68.457 -40.2832 C 69.1406 -39.6484 69.4336 -38.8184 69.4336 -38.0859 C 69.4336 -37.4023 69.1406 -36.5723 68.457 -35.8887 L 52.3926 -20.752 C 51.3184 -19.7754 50.4883 -19.2871 49.3652 -19.2871 Z"/>
  </g>
  <g id="Light-S" transform="matrix(1 0 0 1 1107.6 696)">
   <path d="M 45.5078 3.51562 C 66.6992 3.51562 84.2285 -14.0137 84.2285 -35.1562 C 84.2285 -56.3477 66.6504 -73.877 45.5078 -73.877 C 24.3164 -73.877 6.83594 -56.3477 6.83594 -35.1562 C 6.83594 -14.0137 24.3652 3.51562 45.5078 3.51562 Z M 48.584 -19.043 C 47.2656 -19.043 46.3379 -20.0195 46.3379 -21.2891 L 46.3379 -29.4922 L 45.7031 -29.4922 C 37.2559 -29.4922 32.0312 -27.2949 28.5645 -20.5566 C 27.8809 -19.2871 27.0508 -19.043 26.2207 -19.043 C 25.1953 -19.043 24.2188 -19.9707 24.2188 -21.582 C 24.2188 -37.3047 31.2012 -46.3379 45.7031 -46.3379 L 46.3379 -46.3379 L 46.3379 -54.4922 C 46.3379 -55.7617 47.2656 -56.8359 48.584 -56.8359 C 49.5605 -56.8359 50.1953 -56.3965 51.123 -55.5176 L 67.5781 -40.1367 C 68.457 -39.3555 68.7012 -38.623 68.7012 -37.9395 C 68.7012 -37.2559 68.4082 -36.5234 67.5781 -35.7422 L 51.123 -20.3125 C 50.293 -19.4824 49.5117 -19.043 48.584 -19.043 Z"/>
  </g>
  <g id="Thin-S" transform="matrix(1 0 0 1 811.867 696)">
   <path d="M 44.5801 2.58789 C 65.2832 2.58789 82.2754 -14.4043 82.2754 -35.1562 C 82.2754 -55.8594 65.2344 -72.8516 44.5312 -72.8516 C 23.8281 -72.8516 6.83594 -55.8594 6.83594 -35.1562 C 6.83594 -14.4043 23.877 2.58789 44.5801 2.58789 Z M 47.5098 -18.75 C 46.4844 -18.75 45.8496 -19.5312 45.8496 -20.5566 L 45.8496 -29.5898 L 44.9707 -29.5898 C 35.2051 -29.5898 29.4434 -26.9531 26.2207 -20.0684 C 25.7324 -19.043 25.1953 -18.75 24.4629 -18.75 C 23.6328 -18.75 22.9004 -19.4824 22.9004 -20.6543 C 22.9004 -37.6953 31.1523 -45.752 44.9707 -45.752 L 45.8496 -45.752 L 45.8496 -54.8828 C 45.8496 -55.8594 46.4844 -56.7383 47.5098 -56.7383 C 48.291 -56.7383 48.8281 -56.3477 49.4629 -55.7617 L 66.4551 -39.9902 C 67.4805 -39.0137 67.6758 -38.3789 67.6758 -37.7441 C 67.6758 -37.1094 67.4805 -36.4746 66.4551 -35.498 L 49.4629 -19.6777 C 48.877 -19.1406 48.2422 -18.75 47.5098 -18.75 Z"/>
  </g>
  <g id="Ultralight-S" transform="matrix(1 0 0 1 515.644 696)">
   <path d="M 44.043 2.09961 C 64.502 2.09961 81.2988 -14.6484 81.2988 -35.1074 C 81.2988 -55.5664 64.502 -72.3145 44.043 -72.3145 C 23.584 -72.3145 6.83594 -55.5664 6.83594 -35.1074 C 6.83594 -14.6484 23.584 2.09961 44.043 2.09961 Z M 46.9727 -18.6035 C 46.0449 -18.6035 45.5566 -19.2871 45.5566 -20.166 L 45.5566 -29.6387 L 44.5801 -29.6387 C 34.1797 -29.6387 28.125 -26.7578 25.0488 -19.8242 C 24.6094 -18.9453 24.2188 -18.6035 23.5352 -18.6035 C 22.8027 -18.6035 22.168 -19.1895 22.168 -20.166 C 22.168 -37.9395 31.1523 -45.4102 44.5801 -45.4102 L 45.5566 -45.4102 L 45.5566 -55.0781 C 45.5566 -55.957 46.0449 -56.6406 46.9727 -56.6406 C 47.6074 -56.6406 48.1445 -56.2988 48.584 -55.8594 L 65.8691 -39.8438 C 66.9922 -38.8184 67.1387 -38.2324 67.1387 -37.6465 C 67.1387 -37.0117 66.9434 -36.4258 65.8691 -35.4004 L 48.584 -19.3359 C 48.1445 -18.9453 47.6074 -18.6035 46.9727 -18.6035 Z"/>
  </g>
 </g>
</svg>
